M48
; DRILL file {KiCad 9.0.5-9.0.5~ubuntu25.04.1} date 2025-11-11T19:24:38-0300
; FORMAT={-:-/ absolute / metric / decimal}
; #@! TF.CreationDate,2025-11-11T19:24:38-03:00
; #@! TF.GenerationSoftware,Kicad,Pcbnew,9.0.5-9.0.5~ubuntu25.04.1
; #@! TF.FileFunction,Plated,1,2,PTH
FMAT,2
METRIC
; #@! TA.AperFunction,Plated,PTH,ViaDrill
T1C0.300
; #@! TA.AperFunction,Plated,PTH,ViaDrill
T2C0.400
; #@! TA.AperFunction,Plated,PTH,ViaDrill
T3C0.500
; #@! TA.AperFunction,Plated,PTH,ViaDrill
T4C0.750
; #@! TA.AperFunction,Plated,PTH,ComponentDrill
T5C1.040
; #@! TA.AperFunction,Plated,PTH,ComponentDrill
T6C1.240
; #@! TA.AperFunction,Plated,PTH,ComponentDrill
T7C2.560
; #@! TA.AperFunction,Plated,PTH,ComponentDrill
T8C3.200
%
G90
G05
T1
X92.72Y-62.509
X92.72Y-63.509
X92.72Y-64.509
X92.72Y-65.509
X92.72Y-66.509
X92.72Y-67.509
X92.72Y-68.509
X92.72Y-69.509
X92.72Y-70.509
X92.72Y-71.509
X92.72Y-72.509
X92.72Y-73.509
X92.72Y-74.509
X92.72Y-75.509
X93.72Y-62.509
X93.72Y-63.509
X93.72Y-64.509
X93.72Y-65.509
X93.72Y-66.509
X93.72Y-67.509
X93.72Y-68.509
X93.72Y-69.509
X93.72Y-70.509
X93.72Y-71.509
X93.72Y-72.509
X93.72Y-73.509
X93.72Y-74.509
X93.72Y-75.509
X94.72Y-62.509
X94.72Y-63.509
X94.72Y-64.509
X94.72Y-65.509
X94.72Y-66.509
X94.72Y-67.509
X94.72Y-68.509
X94.72Y-69.509
X94.72Y-70.509
X94.72Y-71.509
X94.72Y-72.509
X94.72Y-73.509
X94.72Y-74.509
X94.72Y-75.509
X95.72Y-62.509
X95.72Y-63.509
X95.72Y-64.509
X95.72Y-65.509
X95.72Y-66.509
X95.72Y-67.509
X95.72Y-68.509
X95.72Y-69.509
X95.72Y-70.509
X95.72Y-71.509
X95.72Y-72.509
X95.72Y-73.509
X95.72Y-74.509
X95.72Y-75.509
X96.72Y-62.509
X96.72Y-63.509
X96.72Y-64.509
X96.72Y-65.509
X96.72Y-66.509
X96.72Y-67.509
X96.72Y-68.509
X96.72Y-69.509
X96.72Y-70.509
X96.72Y-71.509
X96.72Y-72.509
X96.72Y-73.509
X96.72Y-74.509
X96.72Y-75.509
X97.72Y-62.509
X97.72Y-63.509
X97.72Y-64.509
X97.72Y-65.509
X97.72Y-66.509
X97.72Y-67.509
X97.72Y-68.509
X97.72Y-69.509
X97.72Y-70.509
X97.72Y-71.509
X97.72Y-72.509
X97.72Y-73.509
X97.72Y-74.509
X97.72Y-75.509
X98.72Y-62.509
X98.72Y-63.509
X98.72Y-64.509
X98.72Y-65.509
X98.72Y-66.509
X98.72Y-67.509
X98.72Y-68.509
X98.72Y-69.509
X98.72Y-70.509
X98.72Y-71.509
X98.72Y-72.509
X98.72Y-73.509
X98.72Y-74.509
X98.72Y-75.509
X99.72Y-62.509
X99.72Y-63.509
X99.72Y-64.509
X99.72Y-65.509
X99.72Y-66.509
X99.72Y-67.509
X99.72Y-68.509
X99.72Y-69.509
X99.72Y-70.509
X99.72Y-71.509
X99.72Y-72.509
X99.72Y-73.509
X99.72Y-74.509
X99.72Y-75.509
X99.8Y-102.2
X99.8Y-104.0
X100.72Y-62.509
X100.72Y-63.509
X100.72Y-64.509
X100.72Y-65.509
X100.72Y-66.509
X100.72Y-67.509
X100.72Y-68.509
X100.72Y-69.509
X100.72Y-70.509
X100.72Y-71.509
X100.72Y-72.509
X100.72Y-73.509
X100.72Y-74.509
X100.72Y-75.509
X101.72Y-62.509
X101.72Y-63.509
X101.72Y-64.509
X101.72Y-65.509
X101.72Y-66.509
X101.72Y-67.509
X101.72Y-68.509
X101.72Y-69.509
X101.72Y-70.509
X101.72Y-71.509
X101.72Y-72.509
X101.72Y-73.509
X101.72Y-74.509
X101.72Y-75.509
X102.72Y-62.509
X102.72Y-63.509
X102.72Y-64.509
X102.72Y-65.509
X102.72Y-66.509
X102.72Y-67.509
X102.72Y-68.509
X102.72Y-69.509
X102.72Y-70.509
X102.72Y-71.509
X102.72Y-72.509
X102.72Y-73.509
X102.72Y-74.509
X102.72Y-75.509
X149.515Y-62.905
X149.515Y-63.905
X149.515Y-64.905
X149.515Y-65.905
X149.515Y-66.905
X149.515Y-67.905
X149.515Y-68.905
X149.515Y-69.905
X149.515Y-70.905
X149.515Y-71.905
X149.515Y-72.905
X149.515Y-73.905
X149.515Y-74.905
X149.515Y-75.905
X150.515Y-62.905
X150.515Y-63.905
X150.515Y-64.905
X150.515Y-65.905
X150.515Y-66.905
X150.515Y-67.905
X150.515Y-68.905
X150.515Y-69.905
X150.515Y-70.905
X150.515Y-71.905
X150.515Y-72.905
X150.515Y-73.905
X150.515Y-74.905
X150.515Y-75.905
X151.515Y-62.905
X151.515Y-63.905
X151.515Y-64.905
X151.515Y-65.905
X151.515Y-66.905
X151.515Y-67.905
X151.515Y-68.905
X151.515Y-69.905
X151.515Y-70.905
X151.515Y-71.905
X151.515Y-72.905
X151.515Y-73.905
X151.515Y-74.905
X151.515Y-75.905
X152.515Y-62.905
X152.515Y-63.905
X152.515Y-64.905
X152.515Y-65.905
X152.515Y-66.905
X152.515Y-67.905
X152.515Y-68.905
X152.515Y-69.905
X152.515Y-70.905
X152.515Y-71.905
X152.515Y-72.905
X152.515Y-73.905
X152.515Y-74.905
X152.515Y-75.905
X153.515Y-62.905
X153.515Y-63.905
X153.515Y-64.905
X153.515Y-65.905
X153.515Y-66.905
X153.515Y-67.905
X153.515Y-68.905
X153.515Y-69.905
X153.515Y-70.905
X153.515Y-71.905
X153.515Y-72.905
X153.515Y-73.905
X153.515Y-74.905
X153.515Y-75.905
X154.515Y-62.905
X154.515Y-63.905
X154.515Y-64.905
X154.515Y-65.905
X154.515Y-66.905
X154.515Y-67.905
X154.515Y-68.905
X154.515Y-69.905
X154.515Y-70.905
X154.515Y-71.905
X154.515Y-72.905
X154.515Y-73.905
X154.515Y-74.905
X154.515Y-75.905
X155.515Y-62.905
X155.515Y-63.905
X155.515Y-64.905
X155.515Y-65.905
X155.515Y-66.905
X155.515Y-67.905
X155.515Y-68.905
X155.515Y-69.905
X155.515Y-70.905
X155.515Y-71.905
X155.515Y-72.905
X155.515Y-73.905
X155.515Y-74.905
X155.515Y-75.905
X156.515Y-62.905
X156.515Y-63.905
X156.515Y-64.905
X156.515Y-65.905
X156.515Y-66.905
X156.515Y-67.905
X156.515Y-68.905
X156.515Y-69.905
X156.515Y-70.905
X156.515Y-71.905
X156.515Y-72.905
X156.515Y-73.905
X156.515Y-74.905
X156.515Y-75.905
X157.515Y-62.905
X157.515Y-63.905
X157.515Y-64.905
X157.515Y-65.905
X157.515Y-66.905
X157.515Y-67.905
X157.515Y-68.905
X157.515Y-69.905
X157.515Y-70.905
X157.515Y-71.905
X157.515Y-72.905
X157.515Y-73.905
X157.515Y-74.905
X157.515Y-75.905
X158.515Y-62.905
X158.515Y-63.905
X158.515Y-64.905
X158.515Y-65.905
X158.515Y-66.905
X158.515Y-67.905
X158.515Y-68.905
X158.515Y-69.905
X158.515Y-70.905
X158.515Y-71.905
X158.515Y-72.905
X158.515Y-73.905
X158.515Y-74.905
X158.515Y-75.905
X159.515Y-62.905
X159.515Y-63.905
X159.515Y-64.905
X159.515Y-65.905
X159.515Y-66.905
X159.515Y-67.905
X159.515Y-68.905
X159.515Y-69.905
X159.515Y-70.905
X159.515Y-71.905
X159.515Y-72.905
X159.515Y-73.905
X159.515Y-74.905
X159.515Y-75.905
X161.4Y-104.0
X165.0Y-102.0
X165.0Y-104.0
X206.25Y-63.07
X206.25Y-64.07
X206.25Y-65.07
X206.25Y-66.07
X206.25Y-67.07
X206.25Y-68.07
X206.25Y-69.07
X206.25Y-70.07
X206.25Y-71.07
X206.25Y-72.07
X206.25Y-73.07
X206.25Y-74.07
X206.25Y-75.07
X206.25Y-76.07
X206.8Y-109.0
X207.25Y-63.07
X207.25Y-64.07
X207.25Y-65.07
X207.25Y-66.07
X207.25Y-67.07
X207.25Y-68.07
X207.25Y-69.07
X207.25Y-70.07
X207.25Y-71.07
X207.25Y-72.07
X207.25Y-73.07
X207.25Y-74.07
X207.25Y-75.07
X207.25Y-76.07
X208.25Y-63.07
X208.25Y-64.07
X208.25Y-65.07
X208.25Y-66.07
X208.25Y-67.07
X208.25Y-68.07
X208.25Y-69.07
X208.25Y-70.07
X208.25Y-71.07
X208.25Y-72.07
X208.25Y-73.07
X208.25Y-74.07
X208.25Y-75.07
X208.25Y-76.07
X209.2Y-107.2
X209.25Y-63.07
X209.25Y-64.07
X209.25Y-65.07
X209.25Y-66.07
X209.25Y-67.07
X209.25Y-68.07
X209.25Y-69.07
X209.25Y-70.07
X209.25Y-71.07
X209.25Y-72.07
X209.25Y-73.07
X209.25Y-74.07
X209.25Y-75.07
X209.25Y-76.07
X210.25Y-63.07
X210.25Y-64.07
X210.25Y-65.07
X210.25Y-66.07
X210.25Y-67.07
X210.25Y-68.07
X210.25Y-69.07
X210.25Y-70.07
X210.25Y-71.07
X210.25Y-72.07
X210.25Y-73.07
X210.25Y-74.07
X210.25Y-75.07
X210.25Y-76.07
X211.25Y-63.07
X211.25Y-64.07
X211.25Y-65.07
X211.25Y-66.07
X211.25Y-67.07
X211.25Y-68.07
X211.25Y-69.07
X211.25Y-70.07
X211.25Y-71.07
X211.25Y-72.07
X211.25Y-73.07
X211.25Y-74.07
X211.25Y-75.07
X211.25Y-76.07
X212.25Y-63.07
X212.25Y-64.07
X212.25Y-65.07
X212.25Y-66.07
X212.25Y-67.07
X212.25Y-68.07
X212.25Y-69.07
X212.25Y-70.07
X212.25Y-71.07
X212.25Y-72.07
X212.25Y-73.07
X212.25Y-74.07
X212.25Y-75.07
X212.25Y-76.07
X213.25Y-63.07
X213.25Y-64.07
X213.25Y-65.07
X213.25Y-66.07
X213.25Y-67.07
X213.25Y-68.07
X213.25Y-69.07
X213.25Y-70.07
X213.25Y-71.07
X213.25Y-72.07
X213.25Y-73.07
X213.25Y-74.07
X213.25Y-75.07
X213.25Y-76.07
X214.25Y-63.07
X214.25Y-64.07
X214.25Y-65.07
X214.25Y-66.07
X214.25Y-67.07
X214.25Y-68.07
X214.25Y-69.07
X214.25Y-70.07
X214.25Y-71.07
X214.25Y-72.07
X214.25Y-73.07
X214.25Y-74.07
X214.25Y-75.07
X214.25Y-76.07
X215.25Y-63.07
X215.25Y-64.07
X215.25Y-65.07
X215.25Y-66.07
X215.25Y-67.07
X215.25Y-68.07
X215.25Y-69.07
X215.25Y-70.07
X215.25Y-71.07
X215.25Y-72.07
X215.25Y-73.07
X215.25Y-74.07
X215.25Y-75.07
X215.25Y-76.07
X216.25Y-63.07
X216.25Y-64.07
X216.25Y-65.07
X216.25Y-66.07
X216.25Y-67.07
X216.25Y-68.07
X216.25Y-69.07
X216.25Y-70.07
X216.25Y-71.07
X216.25Y-72.07
X216.25Y-73.07
X216.25Y-74.07
X216.25Y-75.07
X216.25Y-76.07
T2
X94.75Y-105.75
X196.002Y-55.767
X208.002Y-55.767
X221.2Y-44.2
X225.6Y-48.6
T3
X106.75Y-93.5
X106.75Y-97.0
X160.75Y-105.845
X170.5Y-92.75
X170.5Y-97.0
X195.6Y-54.2
X198.2Y-50.8
X198.2Y-54.2
X198.5Y-45.695
X198.5Y-46.848
X198.5Y-48.0
X200.75Y-92.0
X200.75Y-97.0
X202.0Y-45.695
X202.0Y-46.848
X202.0Y-48.0
X202.2Y-52.6
X208.6Y-52.6
X212.25Y-104.0
X214.2Y-52.4
X214.2Y-54.8
X221.4Y-52.2
X233.0Y-69.0
X236.0Y-69.0
T4
X76.75Y-46.0
X87.0Y-46.0
X87.0Y-60.0
X97.25Y-46.0
X108.25Y-60.0
X143.75Y-60.0
T5
X123.1Y-37.807
X123.1Y-40.347
X123.1Y-42.907
X123.1Y-45.447
X125.64Y-37.807
X125.64Y-40.347
X125.64Y-42.907
X125.64Y-45.447
X128.18Y-37.807
X128.18Y-40.347
X128.18Y-42.907
X128.18Y-45.447
X130.72Y-37.807
X130.72Y-40.347
X130.72Y-42.907
X130.72Y-45.447
X133.26Y-37.807
X133.26Y-40.347
X133.26Y-42.907
X133.26Y-45.447
X135.8Y-37.807
X135.8Y-40.347
X135.8Y-42.907
X135.8Y-45.447
X138.34Y-37.807
X138.34Y-40.347
X138.34Y-42.907
X138.34Y-45.447
X140.88Y-37.807
X140.88Y-40.347
X140.88Y-42.907
X140.88Y-45.447
X143.42Y-37.807
X143.42Y-40.347
X143.42Y-42.907
X143.42Y-45.447
X145.96Y-37.807
X145.96Y-40.347
X145.96Y-42.907
X145.96Y-45.447
X148.5Y-37.807
X148.5Y-40.347
X148.5Y-42.907
X148.5Y-45.447
X151.04Y-37.807
X151.04Y-40.347
X151.04Y-42.907
X151.04Y-45.447
X153.58Y-37.807
X153.58Y-40.347
X153.58Y-42.907
X153.58Y-45.447
X156.12Y-37.807
X156.12Y-40.347
X156.12Y-42.907
X156.12Y-45.447
X158.66Y-37.807
X158.66Y-40.347
X158.66Y-42.907
X158.66Y-45.447
X161.2Y-37.807
X161.2Y-40.347
X161.2Y-42.907
X161.2Y-45.447
X163.74Y-37.807
X163.74Y-40.347
X163.74Y-42.907
X163.74Y-45.447
X166.28Y-37.807
X166.28Y-40.347
X166.28Y-42.907
X166.28Y-45.447
X168.82Y-37.807
X168.82Y-40.347
X168.82Y-42.907
X168.82Y-45.447
X171.36Y-37.807
X171.36Y-40.347
X171.36Y-42.907
X171.36Y-45.447
X173.9Y-37.807
X173.9Y-40.347
X173.9Y-42.907
X173.9Y-45.447
X176.44Y-37.807
X176.44Y-40.347
X176.44Y-42.907
X176.44Y-45.447
X178.98Y-37.807
X178.98Y-40.347
X178.98Y-42.907
X178.98Y-45.447
X181.52Y-37.807
X181.52Y-40.347
X181.52Y-42.907
X181.52Y-45.447
X184.06Y-37.807
X184.06Y-40.347
X184.06Y-42.907
X184.06Y-45.447
X186.6Y-37.807
X186.6Y-40.347
X186.6Y-42.907
X186.6Y-45.447
T6
X86.317Y-119.424
X88.857Y-119.424
X91.397Y-119.424
X151.671Y-119.5
X154.211Y-119.5
X156.751Y-119.5
X216.591Y-119.506
X219.131Y-119.506
X221.671Y-119.506
T7
X76.492Y-123.403
X101.892Y-123.403
X141.511Y-123.485
X166.911Y-123.485
X206.691Y-123.506
X232.091Y-123.506
T8
X114.209Y-122.719
X118.1Y-37.5
X191.6Y-37.5
X194.209Y-122.719
M30
