%TF.GenerationSoftware,KiCad,Pcbnew,9.0.5-9.0.5~ubuntu25.04.1*%
%TF.CreationDate,2025-11-11T19:24:30-03:00*%
%TF.ProjectId,Load-emulator,4c6f6164-2d65-46d7-956c-61746f722e6b,v2.0 - WIP*%
%TF.SameCoordinates,Original*%
%TF.FileFunction,Soldermask,Bot*%
%TF.FilePolarity,Negative*%
%FSLAX46Y46*%
G04 Gerber Fmt 4.6, Leading zero omitted, Abs format (unit mm)*
G04 Created by KiCad (PCBNEW 9.0.5-9.0.5~ubuntu25.04.1) date 2025-11-11 19:24:30*
%MOMM*%
%LPD*%
G01*
G04 APERTURE LIST*
G04 Aperture macros list*
%AMRoundRect*
0 Rectangle with rounded corners*
0 $1 Rounding radius*
0 $2 $3 $4 $5 $6 $7 $8 $9 X,Y pos of 4 corners*
0 Add a 4 corners polygon primitive as box body*
4,1,4,$2,$3,$4,$5,$6,$7,$8,$9,$2,$3,0*
0 Add four circle primitives for the rounded corners*
1,1,$1+$1,$2,$3*
1,1,$1+$1,$4,$5*
1,1,$1+$1,$6,$7*
1,1,$1+$1,$8,$9*
0 Add four rect primitives between the rounded corners*
20,1,$1+$1,$2,$3,$4,$5,0*
20,1,$1+$1,$4,$5,$6,$7,0*
20,1,$1+$1,$6,$7,$8,$9,0*
20,1,$1+$1,$8,$9,$2,$3,0*%
G04 Aperture macros list end*
%ADD10R,1.840000X1.840000*%
%ADD11C,1.840000*%
%ADD12C,5.500000*%
%ADD13RoundRect,0.102000X0.695000X0.695000X-0.695000X0.695000X-0.695000X-0.695000X0.695000X-0.695000X0*%
%ADD14C,1.594000*%
%ADD15C,3.700000*%
G04 APERTURE END LIST*
D10*
%TO.C,Q3*%
X91397493Y-119424322D03*
D11*
X88857493Y-119424322D03*
X86317493Y-119424322D03*
%TD*%
D10*
%TO.C,Q1*%
X221670624Y-119506009D03*
D11*
X219130624Y-119506009D03*
X216590624Y-119506009D03*
%TD*%
D12*
%TO.C,H4*%
X194208911Y-122719318D03*
%TD*%
%TO.C,H2*%
X191600000Y-37500000D03*
%TD*%
%TO.C,H1*%
X118100000Y-37500000D03*
%TD*%
D13*
%TO.C,J10*%
X123100000Y-42907000D03*
D14*
X123100000Y-45447000D03*
X125640000Y-42907000D03*
X125640000Y-45447000D03*
X128180000Y-42907000D03*
X128180000Y-45447000D03*
X130720000Y-42907000D03*
X130720000Y-45447000D03*
X133260000Y-42907000D03*
X133260000Y-45447000D03*
X135800000Y-42907000D03*
X135800000Y-45447000D03*
X138340000Y-42907000D03*
X138340000Y-45447000D03*
X140880000Y-42907000D03*
X140880000Y-45447000D03*
X143420000Y-42907000D03*
X143420000Y-45447000D03*
X145960000Y-42907000D03*
X145960000Y-45447000D03*
X148500000Y-42907000D03*
X148500000Y-45447000D03*
X151040000Y-42907000D03*
X151040000Y-45447000D03*
X153580000Y-42907000D03*
X153580000Y-45447000D03*
X156120000Y-42907000D03*
X156120000Y-45447000D03*
X158660000Y-42907000D03*
X158660000Y-45447000D03*
X161200000Y-42907000D03*
X161200000Y-45447000D03*
X163740000Y-42907000D03*
X163740000Y-45447000D03*
X166280000Y-42907000D03*
X166280000Y-45447000D03*
X168820000Y-42907000D03*
X168820000Y-45447000D03*
X171360000Y-42907000D03*
X171360000Y-45447000D03*
X173900000Y-42907000D03*
X173900000Y-45447000D03*
X176440000Y-42907000D03*
X176440000Y-45447000D03*
X178980000Y-42907000D03*
X178980000Y-45447000D03*
X181520000Y-42907000D03*
X181520000Y-45447000D03*
X184060000Y-42907000D03*
X184060000Y-45447000D03*
X186600000Y-42907000D03*
X186600000Y-45447000D03*
%TD*%
D15*
%TO.C,HS1*%
X206690624Y-123506009D03*
X232090624Y-123506009D03*
%TD*%
%TO.C,HS3*%
X76491596Y-123403500D03*
X101891596Y-123403500D03*
%TD*%
D12*
%TO.C,H3*%
X114208911Y-122719318D03*
%TD*%
D13*
%TO.C,J11*%
X123100000Y-37807000D03*
D14*
X123100000Y-40347000D03*
X125640000Y-37807000D03*
X125640000Y-40347000D03*
X128180000Y-37807000D03*
X128180000Y-40347000D03*
X130720000Y-37807000D03*
X130720000Y-40347000D03*
X133260000Y-37807000D03*
X133260000Y-40347000D03*
X135800000Y-37807000D03*
X135800000Y-40347000D03*
X138340000Y-37807000D03*
X138340000Y-40347000D03*
X140880000Y-37807000D03*
X140880000Y-40347000D03*
X143420000Y-37807000D03*
X143420000Y-40347000D03*
X145960000Y-37807000D03*
X145960000Y-40347000D03*
X148500000Y-37807000D03*
X148500000Y-40347000D03*
X151040000Y-37807000D03*
X151040000Y-40347000D03*
X153580000Y-37807000D03*
X153580000Y-40347000D03*
X156120000Y-37807000D03*
X156120000Y-40347000D03*
X158660000Y-37807000D03*
X158660000Y-40347000D03*
X161200000Y-37807000D03*
X161200000Y-40347000D03*
X163740000Y-37807000D03*
X163740000Y-40347000D03*
X166280000Y-37807000D03*
X166280000Y-40347000D03*
X168820000Y-37807000D03*
X168820000Y-40347000D03*
X171360000Y-37807000D03*
X171360000Y-40347000D03*
X173900000Y-37807000D03*
X173900000Y-40347000D03*
X176440000Y-37807000D03*
X176440000Y-40347000D03*
X178980000Y-37807000D03*
X178980000Y-40347000D03*
X181520000Y-37807000D03*
X181520000Y-40347000D03*
X184060000Y-37807000D03*
X184060000Y-40347000D03*
X186600000Y-37807000D03*
X186600000Y-40347000D03*
%TD*%
D15*
%TO.C,HS2*%
X141510913Y-123485075D03*
X166910913Y-123485075D03*
%TD*%
D10*
%TO.C,Q2*%
X156750913Y-119500000D03*
D11*
X154210913Y-119500000D03*
X151670913Y-119500000D03*
%TD*%
G36*
X103163039Y-61778835D02*
G01*
X103208794Y-61831639D01*
X103220000Y-61883150D01*
X103220000Y-75885150D01*
X103200315Y-75952189D01*
X103147511Y-75997944D01*
X103096000Y-76009150D01*
X92094000Y-76009150D01*
X92026961Y-75989465D01*
X91981206Y-75936661D01*
X91970000Y-75885150D01*
X91970000Y-61883150D01*
X91989685Y-61816111D01*
X92042489Y-61770356D01*
X92094000Y-61759150D01*
X103096000Y-61759150D01*
X103163039Y-61778835D01*
G37*
G36*
X216693039Y-62339685D02*
G01*
X216738794Y-62392489D01*
X216750000Y-62444000D01*
X216750000Y-76446000D01*
X216730315Y-76513039D01*
X216677511Y-76558794D01*
X216626000Y-76570000D01*
X205624000Y-76570000D01*
X205556961Y-76550315D01*
X205511206Y-76497511D01*
X205500000Y-76446000D01*
X205500000Y-62444000D01*
X205519685Y-62376961D01*
X205572489Y-62331206D01*
X205624000Y-62320000D01*
X216626000Y-62320000D01*
X216693039Y-62339685D01*
G37*
G36*
X159958005Y-62174383D02*
G01*
X160003760Y-62227187D01*
X160014966Y-62278698D01*
X160014966Y-76280698D01*
X159995281Y-76347737D01*
X159942477Y-76393492D01*
X159890966Y-76404698D01*
X148888966Y-76404698D01*
X148821927Y-76385013D01*
X148776172Y-76332209D01*
X148764966Y-76280698D01*
X148764966Y-62278698D01*
X148784651Y-62211659D01*
X148837455Y-62165904D01*
X148888966Y-62154698D01*
X159890966Y-62154698D01*
X159958005Y-62174383D01*
G37*
M02*
