%TF.GenerationSoftware,KiCad,Pcbnew,9.0.5-9.0.5~ubuntu25.04.1*%
%TF.CreationDate,2025-11-11T19:24:28-03:00*%
%TF.ProjectId,Load-emulator,4c6f6164-2d65-46d7-956c-61746f722e6b,v2.0 - WIP*%
%TF.SameCoordinates,Original*%
%TF.FileFunction,Paste,Top*%
%TF.FilePolarity,Positive*%
%FSLAX46Y46*%
G04 Gerber Fmt 4.6, Leading zero omitted, Abs format (unit mm)*
G04 Created by KiCad (PCBNEW 9.0.5-9.0.5~ubuntu25.04.1) date 2025-11-11 19:24:28*
%MOMM*%
%LPD*%
G01*
G04 APERTURE LIST*
G04 Aperture macros list*
%AMRoundRect*
0 Rectangle with rounded corners*
0 $1 Rounding radius*
0 $2 $3 $4 $5 $6 $7 $8 $9 X,Y pos of 4 corners*
0 Add a 4 corners polygon primitive as box body*
4,1,4,$2,$3,$4,$5,$6,$7,$8,$9,$2,$3,0*
0 Add four circle primitives for the rounded corners*
1,1,$1+$1,$2,$3*
1,1,$1+$1,$4,$5*
1,1,$1+$1,$6,$7*
1,1,$1+$1,$8,$9*
0 Add four rect primitives between the rounded corners*
20,1,$1+$1,$2,$3,$4,$5,0*
20,1,$1+$1,$4,$5,$6,$7,0*
20,1,$1+$1,$6,$7,$8,$9,0*
20,1,$1+$1,$8,$9,$2,$3,0*%
G04 Aperture macros list end*
%ADD10C,0.010000*%
%ADD11R,2.290000X1.400000*%
%ADD12R,1.100000X1.450000*%
%ADD13R,1.350000X2.900000*%
%ADD14RoundRect,0.250000X0.250000X0.475000X-0.250000X0.475000X-0.250000X-0.475000X0.250000X-0.475000X0*%
%ADD15RoundRect,0.200000X0.200000X0.275000X-0.200000X0.275000X-0.200000X-0.275000X0.200000X-0.275000X0*%
%ADD16RoundRect,0.250000X1.425000X-0.362500X1.425000X0.362500X-1.425000X0.362500X-1.425000X-0.362500X0*%
%ADD17RoundRect,0.250000X-0.250000X-0.475000X0.250000X-0.475000X0.250000X0.475000X-0.250000X0.475000X0*%
%ADD18R,9.500000X14.000000*%
%ADD19RoundRect,0.200000X0.275000X-0.200000X0.275000X0.200000X-0.275000X0.200000X-0.275000X-0.200000X0*%
%ADD20RoundRect,0.250000X-1.425000X0.362500X-1.425000X-0.362500X1.425000X-0.362500X1.425000X0.362500X0*%
%ADD21R,0.533400X1.460500*%
%ADD22RoundRect,0.200000X-0.275000X0.200000X-0.275000X-0.200000X0.275000X-0.200000X0.275000X0.200000X0*%
%ADD23R,1.460500X0.533400*%
%ADD24RoundRect,0.200000X-0.200000X-0.275000X0.200000X-0.275000X0.200000X0.275000X-0.200000X0.275000X0*%
%ADD25R,1.450000X1.100000*%
%ADD26R,2.900000X1.350000*%
%ADD27RoundRect,0.250000X-0.475000X0.250000X-0.475000X-0.250000X0.475000X-0.250000X0.475000X0.250000X0*%
%ADD28R,0.800000X1.300000*%
%ADD29R,2.100000X3.000000*%
G04 APERTURE END LIST*
D10*
%TO.C,Q8*%
X106860000Y-68455000D02*
X105530000Y-68455000D01*
X105530000Y-66695000D01*
X106860000Y-66695000D01*
X106860000Y-68455000D01*
G36*
X106860000Y-68455000D02*
G01*
X105530000Y-68455000D01*
X105530000Y-66695000D01*
X106860000Y-66695000D01*
X106860000Y-68455000D01*
G37*
X106860000Y-71305000D02*
X105530000Y-71305000D01*
X105530000Y-69545000D01*
X106860000Y-69545000D01*
X106860000Y-71305000D01*
G36*
X106860000Y-71305000D02*
G01*
X105530000Y-71305000D01*
X105530000Y-69545000D01*
X106860000Y-69545000D01*
X106860000Y-71305000D01*
G37*
X108920000Y-68455000D02*
X107590000Y-68455000D01*
X107590000Y-66695000D01*
X108920000Y-66695000D01*
X108920000Y-68455000D01*
G36*
X108920000Y-68455000D02*
G01*
X107590000Y-68455000D01*
X107590000Y-66695000D01*
X108920000Y-66695000D01*
X108920000Y-68455000D01*
G37*
X108920000Y-71305000D02*
X107590000Y-71305000D01*
X107590000Y-69545000D01*
X108920000Y-69545000D01*
X108920000Y-71305000D01*
G36*
X108920000Y-71305000D02*
G01*
X107590000Y-71305000D01*
X107590000Y-69545000D01*
X108920000Y-69545000D01*
X108920000Y-71305000D01*
G37*
X110980000Y-68455000D02*
X109650000Y-68455000D01*
X109650000Y-66695000D01*
X110980000Y-66695000D01*
X110980000Y-68455000D01*
G36*
X110980000Y-68455000D02*
G01*
X109650000Y-68455000D01*
X109650000Y-66695000D01*
X110980000Y-66695000D01*
X110980000Y-68455000D01*
G37*
X110980000Y-71305000D02*
X109650000Y-71305000D01*
X109650000Y-69545000D01*
X110980000Y-69545000D01*
X110980000Y-71305000D01*
G36*
X110980000Y-71305000D02*
G01*
X109650000Y-71305000D01*
X109650000Y-69545000D01*
X110980000Y-69545000D01*
X110980000Y-71305000D01*
G37*
%TO.C,Q6*%
X142292759Y-68939105D02*
X140962759Y-68939105D01*
X140962759Y-67179105D01*
X142292759Y-67179105D01*
X142292759Y-68939105D01*
G36*
X142292759Y-68939105D02*
G01*
X140962759Y-68939105D01*
X140962759Y-67179105D01*
X142292759Y-67179105D01*
X142292759Y-68939105D01*
G37*
X142292759Y-71789105D02*
X140962759Y-71789105D01*
X140962759Y-70029105D01*
X142292759Y-70029105D01*
X142292759Y-71789105D01*
G36*
X142292759Y-71789105D02*
G01*
X140962759Y-71789105D01*
X140962759Y-70029105D01*
X142292759Y-70029105D01*
X142292759Y-71789105D01*
G37*
X144352759Y-68939105D02*
X143022759Y-68939105D01*
X143022759Y-67179105D01*
X144352759Y-67179105D01*
X144352759Y-68939105D01*
G36*
X144352759Y-68939105D02*
G01*
X143022759Y-68939105D01*
X143022759Y-67179105D01*
X144352759Y-67179105D01*
X144352759Y-68939105D01*
G37*
X144352759Y-71789105D02*
X143022759Y-71789105D01*
X143022759Y-70029105D01*
X144352759Y-70029105D01*
X144352759Y-71789105D01*
G36*
X144352759Y-71789105D02*
G01*
X143022759Y-71789105D01*
X143022759Y-70029105D01*
X144352759Y-70029105D01*
X144352759Y-71789105D01*
G37*
X146412759Y-68939105D02*
X145082759Y-68939105D01*
X145082759Y-67179105D01*
X146412759Y-67179105D01*
X146412759Y-68939105D01*
G36*
X146412759Y-68939105D02*
G01*
X145082759Y-68939105D01*
X145082759Y-67179105D01*
X146412759Y-67179105D01*
X146412759Y-68939105D01*
G37*
X146412759Y-71789105D02*
X145082759Y-71789105D01*
X145082759Y-70029105D01*
X146412759Y-70029105D01*
X146412759Y-71789105D01*
G36*
X146412759Y-71789105D02*
G01*
X145082759Y-71789105D01*
X145082759Y-70029105D01*
X146412759Y-70029105D01*
X146412759Y-71789105D01*
G37*
%TO.C,Q5*%
X220420000Y-68920000D02*
X219090000Y-68920000D01*
X219090000Y-67160000D01*
X220420000Y-67160000D01*
X220420000Y-68920000D01*
G36*
X220420000Y-68920000D02*
G01*
X219090000Y-68920000D01*
X219090000Y-67160000D01*
X220420000Y-67160000D01*
X220420000Y-68920000D01*
G37*
X220420000Y-71770000D02*
X219090000Y-71770000D01*
X219090000Y-70010000D01*
X220420000Y-70010000D01*
X220420000Y-71770000D01*
G36*
X220420000Y-71770000D02*
G01*
X219090000Y-71770000D01*
X219090000Y-70010000D01*
X220420000Y-70010000D01*
X220420000Y-71770000D01*
G37*
X222480000Y-68920000D02*
X221150000Y-68920000D01*
X221150000Y-67160000D01*
X222480000Y-67160000D01*
X222480000Y-68920000D01*
G36*
X222480000Y-68920000D02*
G01*
X221150000Y-68920000D01*
X221150000Y-67160000D01*
X222480000Y-67160000D01*
X222480000Y-68920000D01*
G37*
X222480000Y-71770000D02*
X221150000Y-71770000D01*
X221150000Y-70010000D01*
X222480000Y-70010000D01*
X222480000Y-71770000D01*
G36*
X222480000Y-71770000D02*
G01*
X221150000Y-71770000D01*
X221150000Y-70010000D01*
X222480000Y-70010000D01*
X222480000Y-71770000D01*
G37*
X224540000Y-68920000D02*
X223210000Y-68920000D01*
X223210000Y-67160000D01*
X224540000Y-67160000D01*
X224540000Y-68920000D01*
G36*
X224540000Y-68920000D02*
G01*
X223210000Y-68920000D01*
X223210000Y-67160000D01*
X224540000Y-67160000D01*
X224540000Y-68920000D01*
G37*
X224540000Y-71770000D02*
X223210000Y-71770000D01*
X223210000Y-70010000D01*
X224540000Y-70010000D01*
X224540000Y-71770000D01*
G36*
X224540000Y-71770000D02*
G01*
X223210000Y-71770000D01*
X223210000Y-70010000D01*
X224540000Y-70010000D01*
X224540000Y-71770000D01*
G37*
%TO.C,Q7*%
X163610000Y-68921226D02*
X162280000Y-68921226D01*
X162280000Y-67161226D01*
X163610000Y-67161226D01*
X163610000Y-68921226D01*
G36*
X163610000Y-68921226D02*
G01*
X162280000Y-68921226D01*
X162280000Y-67161226D01*
X163610000Y-67161226D01*
X163610000Y-68921226D01*
G37*
X163610000Y-71771226D02*
X162280000Y-71771226D01*
X162280000Y-70011226D01*
X163610000Y-70011226D01*
X163610000Y-71771226D01*
G36*
X163610000Y-71771226D02*
G01*
X162280000Y-71771226D01*
X162280000Y-70011226D01*
X163610000Y-70011226D01*
X163610000Y-71771226D01*
G37*
X165670000Y-68921226D02*
X164340000Y-68921226D01*
X164340000Y-67161226D01*
X165670000Y-67161226D01*
X165670000Y-68921226D01*
G36*
X165670000Y-68921226D02*
G01*
X164340000Y-68921226D01*
X164340000Y-67161226D01*
X165670000Y-67161226D01*
X165670000Y-68921226D01*
G37*
X165670000Y-71771226D02*
X164340000Y-71771226D01*
X164340000Y-70011226D01*
X165670000Y-70011226D01*
X165670000Y-71771226D01*
G36*
X165670000Y-71771226D02*
G01*
X164340000Y-71771226D01*
X164340000Y-70011226D01*
X165670000Y-70011226D01*
X165670000Y-71771226D01*
G37*
X167730000Y-68921226D02*
X166400000Y-68921226D01*
X166400000Y-67161226D01*
X167730000Y-67161226D01*
X167730000Y-68921226D01*
G36*
X167730000Y-68921226D02*
G01*
X166400000Y-68921226D01*
X166400000Y-67161226D01*
X167730000Y-67161226D01*
X167730000Y-68921226D01*
G37*
X167730000Y-71771226D02*
X166400000Y-71771226D01*
X166400000Y-70011226D01*
X167730000Y-70011226D01*
X167730000Y-71771226D01*
G36*
X167730000Y-71771226D02*
G01*
X166400000Y-71771226D01*
X166400000Y-70011226D01*
X167730000Y-70011226D01*
X167730000Y-71771226D01*
G37*
%TO.C,Q4*%
X198977086Y-68906944D02*
X197647086Y-68906944D01*
X197647086Y-67146944D01*
X198977086Y-67146944D01*
X198977086Y-68906944D01*
G36*
X198977086Y-68906944D02*
G01*
X197647086Y-68906944D01*
X197647086Y-67146944D01*
X198977086Y-67146944D01*
X198977086Y-68906944D01*
G37*
X198977086Y-71756944D02*
X197647086Y-71756944D01*
X197647086Y-69996944D01*
X198977086Y-69996944D01*
X198977086Y-71756944D01*
G36*
X198977086Y-71756944D02*
G01*
X197647086Y-71756944D01*
X197647086Y-69996944D01*
X198977086Y-69996944D01*
X198977086Y-71756944D01*
G37*
X201037086Y-68906944D02*
X199707086Y-68906944D01*
X199707086Y-67146944D01*
X201037086Y-67146944D01*
X201037086Y-68906944D01*
G36*
X201037086Y-68906944D02*
G01*
X199707086Y-68906944D01*
X199707086Y-67146944D01*
X201037086Y-67146944D01*
X201037086Y-68906944D01*
G37*
X201037086Y-71756944D02*
X199707086Y-71756944D01*
X199707086Y-69996944D01*
X201037086Y-69996944D01*
X201037086Y-71756944D01*
G36*
X201037086Y-71756944D02*
G01*
X199707086Y-71756944D01*
X199707086Y-69996944D01*
X201037086Y-69996944D01*
X201037086Y-71756944D01*
G37*
X203097086Y-68906944D02*
X201767086Y-68906944D01*
X201767086Y-67146944D01*
X203097086Y-67146944D01*
X203097086Y-68906944D01*
G36*
X203097086Y-68906944D02*
G01*
X201767086Y-68906944D01*
X201767086Y-67146944D01*
X203097086Y-67146944D01*
X203097086Y-68906944D01*
G37*
X203097086Y-71756944D02*
X201767086Y-71756944D01*
X201767086Y-69996944D01*
X203097086Y-69996944D01*
X203097086Y-71756944D01*
G36*
X203097086Y-71756944D02*
G01*
X201767086Y-71756944D01*
X201767086Y-69996944D01*
X203097086Y-69996944D01*
X203097086Y-71756944D01*
G37*
%TO.C,Q9*%
X85562500Y-68705000D02*
X84232500Y-68705000D01*
X84232500Y-66945000D01*
X85562500Y-66945000D01*
X85562500Y-68705000D01*
G36*
X85562500Y-68705000D02*
G01*
X84232500Y-68705000D01*
X84232500Y-66945000D01*
X85562500Y-66945000D01*
X85562500Y-68705000D01*
G37*
X85562500Y-71555000D02*
X84232500Y-71555000D01*
X84232500Y-69795000D01*
X85562500Y-69795000D01*
X85562500Y-71555000D01*
G36*
X85562500Y-71555000D02*
G01*
X84232500Y-71555000D01*
X84232500Y-69795000D01*
X85562500Y-69795000D01*
X85562500Y-71555000D01*
G37*
X87622500Y-68705000D02*
X86292500Y-68705000D01*
X86292500Y-66945000D01*
X87622500Y-66945000D01*
X87622500Y-68705000D01*
G36*
X87622500Y-68705000D02*
G01*
X86292500Y-68705000D01*
X86292500Y-66945000D01*
X87622500Y-66945000D01*
X87622500Y-68705000D01*
G37*
X87622500Y-71555000D02*
X86292500Y-71555000D01*
X86292500Y-69795000D01*
X87622500Y-69795000D01*
X87622500Y-71555000D01*
G36*
X87622500Y-71555000D02*
G01*
X86292500Y-71555000D01*
X86292500Y-69795000D01*
X87622500Y-69795000D01*
X87622500Y-71555000D01*
G37*
X89682500Y-68705000D02*
X88352500Y-68705000D01*
X88352500Y-66945000D01*
X89682500Y-66945000D01*
X89682500Y-68705000D01*
G36*
X89682500Y-68705000D02*
G01*
X88352500Y-68705000D01*
X88352500Y-66945000D01*
X89682500Y-66945000D01*
X89682500Y-68705000D01*
G37*
X89682500Y-71555000D02*
X88352500Y-71555000D01*
X88352500Y-69795000D01*
X89682500Y-69795000D01*
X89682500Y-71555000D01*
G36*
X89682500Y-71555000D02*
G01*
X88352500Y-71555000D01*
X88352500Y-69795000D01*
X89682500Y-69795000D01*
X89682500Y-71555000D01*
G37*
%TD*%
D11*
%TO.C,Q8*%
X114690000Y-71285000D03*
X114690000Y-66715000D03*
%TD*%
D12*
%TO.C,J5*%
X99145000Y-41725000D03*
X97145000Y-41725000D03*
D13*
X94250000Y-35750000D03*
X102040000Y-35750000D03*
%TD*%
D14*
%TO.C,C10*%
X212401957Y-52516756D03*
X210501957Y-52516756D03*
%TD*%
D15*
%TO.C,R46*%
X175825000Y-86250000D03*
X174175000Y-86250000D03*
%TD*%
D16*
%TO.C,R49*%
X174998713Y-67198361D03*
X174998713Y-61273361D03*
%TD*%
D17*
%TO.C,C17*%
X84275000Y-55250000D03*
X86175000Y-55250000D03*
%TD*%
D18*
%TO.C,HS7*%
X164974614Y-69245822D03*
%TD*%
D14*
%TO.C,C14*%
X117700000Y-58500000D03*
X115800000Y-58500000D03*
%TD*%
D12*
%TO.C,J7*%
X88895000Y-41725000D03*
X86895000Y-41725000D03*
D13*
X84000000Y-35750000D03*
X91790000Y-35750000D03*
%TD*%
D19*
%TO.C,R39*%
X234001957Y-53091756D03*
X234001957Y-51441756D03*
%TD*%
D20*
%TO.C,R59*%
X77000000Y-71575000D03*
X77000000Y-77500000D03*
%TD*%
D15*
%TO.C,R31*%
X88325000Y-116500000D03*
X86675000Y-116500000D03*
%TD*%
D14*
%TO.C,C5*%
X155944731Y-108485041D03*
X154044731Y-108485041D03*
%TD*%
D15*
%TO.C,R34*%
X214076957Y-50766756D03*
X212426957Y-50766756D03*
%TD*%
D17*
%TO.C,C12*%
X156300000Y-58000000D03*
X158200000Y-58000000D03*
%TD*%
D15*
%TO.C,R52*%
X119150000Y-86250000D03*
X117500000Y-86250000D03*
%TD*%
D20*
%TO.C,R40*%
X190475110Y-71796301D03*
X190475110Y-77721301D03*
%TD*%
D15*
%TO.C,R20*%
X153575000Y-116500000D03*
X151925000Y-116500000D03*
%TD*%
D21*
%TO.C,U10*%
X175750000Y-78801700D03*
X174480000Y-78801700D03*
X173210000Y-78801700D03*
X171940000Y-78801700D03*
X171940000Y-84250000D03*
X173210000Y-84250000D03*
X174480000Y-84250000D03*
X175750000Y-84250000D03*
%TD*%
D11*
%TO.C,Q6*%
X137252759Y-67199105D03*
X137252759Y-71769105D03*
%TD*%
D22*
%TO.C,R25*%
X108750000Y-105925000D03*
X108750000Y-107575000D03*
%TD*%
D16*
%TO.C,R33*%
X84250000Y-114462500D03*
X84250000Y-108537500D03*
%TD*%
D21*
%TO.C,U11*%
X119155000Y-78775850D03*
X117885000Y-78775850D03*
X116615000Y-78775850D03*
X115345000Y-78775850D03*
X115345000Y-84224150D03*
X116615000Y-84224150D03*
X117885000Y-84224150D03*
X119155000Y-84224150D03*
%TD*%
D23*
%TO.C,U4*%
X166500000Y-100000000D03*
X166500000Y-101270000D03*
X166500000Y-102540000D03*
X166500000Y-103810000D03*
X171948300Y-103810000D03*
X171948300Y-102540000D03*
X171948300Y-101270000D03*
X171948300Y-100000000D03*
%TD*%
D24*
%TO.C,R19*%
X162350000Y-101750000D03*
X164000000Y-101750000D03*
%TD*%
D25*
%TO.C,J2*%
X75837500Y-103500000D03*
X75837500Y-105500000D03*
D26*
X69862500Y-108395000D03*
X69862500Y-100605000D03*
%TD*%
D22*
%TO.C,R24*%
X92500000Y-106925000D03*
X92500000Y-108575000D03*
%TD*%
D17*
%TO.C,C13*%
X151300000Y-58000000D03*
X153200000Y-58000000D03*
%TD*%
D19*
%TO.C,R3*%
X197511255Y-103715508D03*
X197511255Y-102065508D03*
%TD*%
D11*
%TO.C,Q5*%
X228250000Y-71750000D03*
X228250000Y-67180000D03*
%TD*%
D15*
%TO.C,R18*%
X162275000Y-100000000D03*
X160625000Y-100000000D03*
%TD*%
%TO.C,R43*%
X154750000Y-56000000D03*
X153100000Y-56000000D03*
%TD*%
D20*
%TO.C,R48*%
X133750000Y-71787500D03*
X133750000Y-77712500D03*
%TD*%
D17*
%TO.C,C2*%
X224600000Y-102425000D03*
X226500000Y-102425000D03*
%TD*%
D11*
%TO.C,Q7*%
X171440000Y-71751226D03*
X171440000Y-67181226D03*
%TD*%
D15*
%TO.C,R56*%
X86000000Y-53500000D03*
X84350000Y-53500000D03*
%TD*%
D16*
%TO.C,R41*%
X231746143Y-67445147D03*
X231746143Y-61520147D03*
%TD*%
D21*
%TO.C,U9*%
X133095000Y-63474150D03*
X134365000Y-63474150D03*
X135635000Y-63474150D03*
X136905000Y-63474150D03*
X136905000Y-58025850D03*
X135635000Y-58025850D03*
X134365000Y-58025850D03*
X133095000Y-58025850D03*
%TD*%
D14*
%TO.C,C4*%
X155944731Y-105735041D03*
X154044731Y-105735041D03*
%TD*%
D21*
%TO.C,U12*%
X76250000Y-63198300D03*
X77520000Y-63198300D03*
X78790000Y-63198300D03*
X80060000Y-63198300D03*
X80060000Y-57750000D03*
X78790000Y-57750000D03*
X77520000Y-57750000D03*
X76250000Y-57750000D03*
%TD*%
D22*
%TO.C,R12*%
X157494731Y-103910041D03*
X157494731Y-105560041D03*
%TD*%
D21*
%TO.C,U7*%
X189940000Y-59933725D03*
X191210000Y-59933725D03*
X192480000Y-59933725D03*
X193750000Y-59933725D03*
X193750000Y-54485425D03*
X192480000Y-54485425D03*
X191210000Y-54485425D03*
X189940000Y-54485425D03*
%TD*%
D11*
%TO.C,Q4*%
X193937086Y-67166944D03*
X193937086Y-71736944D03*
%TD*%
D22*
%TO.C,R2*%
X223000000Y-100850000D03*
X223000000Y-102500000D03*
%TD*%
%TO.C,R13*%
X157494731Y-106910041D03*
X157494731Y-108560041D03*
%TD*%
D24*
%TO.C,R30*%
X97175000Y-101750000D03*
X98825000Y-101750000D03*
%TD*%
D11*
%TO.C,Q9*%
X80522500Y-66965000D03*
X80522500Y-71535000D03*
%TD*%
D14*
%TO.C,C8*%
X90950000Y-108500000D03*
X89050000Y-108500000D03*
%TD*%
D22*
%TO.C,R14*%
X174000000Y-105925000D03*
X174000000Y-107575000D03*
%TD*%
D18*
%TO.C,HS5*%
X221734437Y-69497279D03*
%TD*%
D23*
%TO.C,U6*%
X101301700Y-100000000D03*
X101301700Y-101270000D03*
X101301700Y-102540000D03*
X101301700Y-103810000D03*
X106750000Y-103810000D03*
X106750000Y-102540000D03*
X106750000Y-101270000D03*
X106750000Y-100000000D03*
%TD*%
D19*
%TO.C,R38*%
X234001957Y-56091756D03*
X234001957Y-54441756D03*
%TD*%
D22*
%TO.C,R23*%
X92500000Y-103925000D03*
X92500000Y-105575000D03*
%TD*%
D12*
%TO.C,J8*%
X214500000Y-41725000D03*
X212500000Y-41725000D03*
D13*
X209605000Y-35750000D03*
X217395000Y-35750000D03*
%TD*%
D15*
%TO.C,R47*%
X171825000Y-86250000D03*
X170175000Y-86250000D03*
%TD*%
D12*
%TO.C,J4*%
X125000000Y-118000000D03*
X127000000Y-118000000D03*
D13*
X129895000Y-123975000D03*
X122105000Y-123975000D03*
%TD*%
D22*
%TO.C,R42*%
X156250000Y-54425000D03*
X156250000Y-56075000D03*
%TD*%
%TO.C,R9*%
X213000000Y-112675000D03*
X213000000Y-114325000D03*
%TD*%
D17*
%TO.C,C16*%
X87725000Y-55250000D03*
X89625000Y-55250000D03*
%TD*%
D16*
%TO.C,R54*%
X118250000Y-66712500D03*
X118250000Y-60787500D03*
%TD*%
D27*
%TO.C,C11*%
X210601957Y-55891756D03*
X210601957Y-57791756D03*
%TD*%
D28*
%TO.C,J9*%
X233375000Y-39500000D03*
X232125000Y-39500000D03*
X230875000Y-39500000D03*
X229625000Y-39500000D03*
X228375000Y-39500000D03*
X227125000Y-39500000D03*
X225875000Y-39500000D03*
X224625000Y-39500000D03*
D29*
X222075000Y-36750000D03*
X235925000Y-36750000D03*
%TD*%
D17*
%TO.C,C1*%
X224600000Y-99675000D03*
X226500000Y-99675000D03*
%TD*%
D22*
%TO.C,R16*%
X173925000Y-100025000D03*
X173925000Y-101675000D03*
%TD*%
%TO.C,R1*%
X223000000Y-97850000D03*
X223000000Y-99500000D03*
%TD*%
D14*
%TO.C,C7*%
X90950000Y-105750000D03*
X89050000Y-105750000D03*
%TD*%
D19*
%TO.C,R5*%
X197511255Y-109790508D03*
X197511255Y-108140508D03*
%TD*%
D23*
%TO.C,U1*%
X204750000Y-103810000D03*
X204750000Y-102540000D03*
X204750000Y-101270000D03*
X204750000Y-100000000D03*
X199301700Y-100000000D03*
X199301700Y-101270000D03*
X199301700Y-102540000D03*
X199301700Y-103810000D03*
%TD*%
D24*
%TO.C,R51*%
X119425000Y-56750000D03*
X121075000Y-56750000D03*
%TD*%
D15*
%TO.C,R55*%
X89500000Y-53500000D03*
X87850000Y-53500000D03*
%TD*%
%TO.C,R8*%
X208411255Y-107965508D03*
X206761255Y-107965508D03*
%TD*%
D22*
%TO.C,R27*%
X108750000Y-100100000D03*
X108750000Y-101750000D03*
%TD*%
D15*
%TO.C,R32*%
X98825000Y-103250000D03*
X97175000Y-103250000D03*
%TD*%
D12*
%TO.C,J6*%
X202250000Y-41725000D03*
X200250000Y-41725000D03*
D13*
X197355000Y-35750000D03*
X205145000Y-35750000D03*
%TD*%
D14*
%TO.C,C9*%
X98950000Y-107000000D03*
X97050000Y-107000000D03*
%TD*%
D24*
%TO.C,R44*%
X133100000Y-56000000D03*
X134750000Y-56000000D03*
%TD*%
%TO.C,R15*%
X173925000Y-109500000D03*
X175575000Y-109500000D03*
%TD*%
%TO.C,R45*%
X136925000Y-56000000D03*
X138575000Y-56000000D03*
%TD*%
%TO.C,R36*%
X189865000Y-52485425D03*
X191515000Y-52485425D03*
%TD*%
D14*
%TO.C,C15*%
X121200000Y-58500000D03*
X119300000Y-58500000D03*
%TD*%
D24*
%TO.C,R50*%
X115925000Y-56750000D03*
X117575000Y-56750000D03*
%TD*%
D18*
%TO.C,HS9*%
X87000000Y-69000000D03*
%TD*%
D24*
%TO.C,R17*%
X173925000Y-103750000D03*
X175575000Y-103750000D03*
%TD*%
%TO.C,R57*%
X76175000Y-55750000D03*
X77825000Y-55750000D03*
%TD*%
%TO.C,R28*%
X108675000Y-103750000D03*
X110325000Y-103750000D03*
%TD*%
D23*
%TO.C,U3*%
X166500000Y-105845000D03*
X166500000Y-107115000D03*
X166500000Y-108385000D03*
X166500000Y-109655000D03*
X171948300Y-109655000D03*
X171948300Y-108385000D03*
X171948300Y-107115000D03*
X171948300Y-105845000D03*
%TD*%
D15*
%TO.C,R21*%
X164000000Y-103250000D03*
X162350000Y-103250000D03*
%TD*%
D25*
%TO.C,J3*%
X232750000Y-105500000D03*
X232750000Y-103500000D03*
D26*
X238725000Y-100605000D03*
X238725000Y-108395000D03*
%TD*%
D22*
%TO.C,R35*%
X212501957Y-54191756D03*
X212501957Y-55841756D03*
%TD*%
D18*
%TO.C,HS8*%
X108248714Y-68982005D03*
%TD*%
D17*
%TO.C,C3*%
X207811255Y-102465508D03*
X209711255Y-102465508D03*
%TD*%
D24*
%TO.C,R26*%
X108675000Y-109500000D03*
X110325000Y-109500000D03*
%TD*%
D16*
%TO.C,R22*%
X149200063Y-114443201D03*
X149200063Y-108518201D03*
%TD*%
D18*
%TO.C,HS4*%
X200480110Y-69508801D03*
%TD*%
D24*
%TO.C,R10*%
X206761255Y-106215508D03*
X208411255Y-106215508D03*
%TD*%
D15*
%TO.C,R4*%
X197517156Y-99945034D03*
X195867156Y-99945034D03*
%TD*%
D23*
%TO.C,U5*%
X101301700Y-105810000D03*
X101301700Y-107080000D03*
X101301700Y-108350000D03*
X101301700Y-109620000D03*
X106750000Y-109620000D03*
X106750000Y-108350000D03*
X106750000Y-107080000D03*
X106750000Y-105810000D03*
%TD*%
D15*
%TO.C,R6*%
X197517156Y-105945034D03*
X195867156Y-105945034D03*
%TD*%
D18*
%TO.C,HS6*%
X143750000Y-69250000D03*
%TD*%
D24*
%TO.C,R58*%
X80100000Y-55750000D03*
X81750000Y-55750000D03*
%TD*%
D23*
%TO.C,U2*%
X204750000Y-109810000D03*
X204750000Y-108540000D03*
X204750000Y-107270000D03*
X204750000Y-106000000D03*
X199301700Y-106000000D03*
X199301700Y-107270000D03*
X199301700Y-108540000D03*
X199301700Y-109810000D03*
%TD*%
D21*
%TO.C,U8*%
X228326191Y-57228446D03*
X229596191Y-57228446D03*
X230866191Y-57228446D03*
X232136191Y-57228446D03*
X232136191Y-51780146D03*
X230866191Y-51780146D03*
X229596191Y-51780146D03*
X228326191Y-51780146D03*
%TD*%
D14*
%TO.C,C6*%
X164250000Y-107000000D03*
X162350000Y-107000000D03*
%TD*%
D24*
%TO.C,R7*%
X208436255Y-109715508D03*
X210086255Y-109715508D03*
%TD*%
D16*
%TO.C,R11*%
X217250000Y-114712500D03*
X217250000Y-108787500D03*
%TD*%
D15*
%TO.C,R53*%
X115325000Y-86250000D03*
X113675000Y-86250000D03*
%TD*%
D24*
%TO.C,R37*%
X193695000Y-52459575D03*
X195345000Y-52459575D03*
%TD*%
D12*
%TO.C,J1*%
X78645000Y-41725000D03*
X76645000Y-41725000D03*
D13*
X73750000Y-35750000D03*
X81540000Y-35750000D03*
%TD*%
D15*
%TO.C,R29*%
X97075000Y-100000000D03*
X95425000Y-100000000D03*
%TD*%
M02*
