%TF.GenerationSoftware,KiCad,Pcbnew,9.0.5-9.0.5~ubuntu25.04.1*%
%TF.CreationDate,2025-11-11T19:24:30-03:00*%
%TF.ProjectId,Load-emulator,4c6f6164-2d65-46d7-956c-61746f722e6b,v2.0 - WIP*%
%TF.SameCoordinates,Original*%
%TF.FileFunction,Soldermask,Top*%
%TF.FilePolarity,Negative*%
%FSLAX46Y46*%
G04 Gerber Fmt 4.6, Leading zero omitted, Abs format (unit mm)*
G04 Created by KiCad (PCBNEW 9.0.5-9.0.5~ubuntu25.04.1) date 2025-11-11 19:24:30*
%MOMM*%
%LPD*%
G01*
G04 APERTURE LIST*
G04 Aperture macros list*
%AMRoundRect*
0 Rectangle with rounded corners*
0 $1 Rounding radius*
0 $2 $3 $4 $5 $6 $7 $8 $9 X,Y pos of 4 corners*
0 Add a 4 corners polygon primitive as box body*
4,1,4,$2,$3,$4,$5,$6,$7,$8,$9,$2,$3,0*
0 Add four circle primitives for the rounded corners*
1,1,$1+$1,$2,$3*
1,1,$1+$1,$4,$5*
1,1,$1+$1,$6,$7*
1,1,$1+$1,$8,$9*
0 Add four rect primitives between the rounded corners*
20,1,$1+$1,$2,$3,$4,$5,0*
20,1,$1+$1,$4,$5,$6,$7,0*
20,1,$1+$1,$6,$7,$8,$9,0*
20,1,$1+$1,$8,$9,$2,$3,0*%
G04 Aperture macros list end*
%ADD10C,0.010000*%
%ADD11RoundRect,0.102000X1.145000X0.700000X-1.145000X0.700000X-1.145000X-0.700000X1.145000X-0.700000X0*%
%ADD12RoundRect,0.102000X3.090000X2.845000X-3.090000X2.845000X-3.090000X-2.845000X3.090000X-2.845000X0*%
%ADD13R,1.100000X1.450000*%
%ADD14R,1.350000X2.900000*%
%ADD15RoundRect,0.250000X0.250000X0.475000X-0.250000X0.475000X-0.250000X-0.475000X0.250000X-0.475000X0*%
%ADD16RoundRect,0.200000X0.200000X0.275000X-0.200000X0.275000X-0.200000X-0.275000X0.200000X-0.275000X0*%
%ADD17RoundRect,0.250000X1.425000X-0.362500X1.425000X0.362500X-1.425000X0.362500X-1.425000X-0.362500X0*%
%ADD18C,1.500000*%
%ADD19RoundRect,0.250000X-0.250000X-0.475000X0.250000X-0.475000X0.250000X0.475000X-0.250000X0.475000X0*%
%ADD20R,9.500000X14.000000*%
%ADD21RoundRect,0.200000X0.275000X-0.200000X0.275000X0.200000X-0.275000X0.200000X-0.275000X-0.200000X0*%
%ADD22R,1.840000X1.840000*%
%ADD23C,1.840000*%
%ADD24RoundRect,0.250000X-1.425000X0.362500X-1.425000X-0.362500X1.425000X-0.362500X1.425000X0.362500X0*%
%ADD25R,0.533400X1.460500*%
%ADD26RoundRect,0.102000X-1.145000X-0.700000X1.145000X-0.700000X1.145000X0.700000X-1.145000X0.700000X0*%
%ADD27RoundRect,0.102000X-3.090000X-2.845000X3.090000X-2.845000X3.090000X2.845000X-3.090000X2.845000X0*%
%ADD28RoundRect,0.200000X-0.275000X0.200000X-0.275000X-0.200000X0.275000X-0.200000X0.275000X0.200000X0*%
%ADD29R,1.460500X0.533400*%
%ADD30RoundRect,0.200000X-0.200000X-0.275000X0.200000X-0.275000X0.200000X0.275000X-0.200000X0.275000X0*%
%ADD31R,1.450000X1.100000*%
%ADD32R,2.900000X1.350000*%
%ADD33C,5.500000*%
%ADD34RoundRect,0.102000X0.695000X0.695000X-0.695000X0.695000X-0.695000X-0.695000X0.695000X-0.695000X0*%
%ADD35C,1.594000*%
%ADD36C,3.700000*%
%ADD37RoundRect,0.250000X-0.475000X0.250000X-0.475000X-0.250000X0.475000X-0.250000X0.475000X0.250000X0*%
G04 APERTURE END LIST*
D10*
%TO.C,J9*%
X223201200Y-38326200D02*
X220948800Y-38326200D01*
X220948800Y-35173800D01*
X223201200Y-35173800D01*
X223201200Y-38326200D01*
G36*
X223201200Y-38326200D02*
G01*
X220948800Y-38326200D01*
X220948800Y-35173800D01*
X223201200Y-35173800D01*
X223201200Y-38326200D01*
G37*
X225101200Y-40226200D02*
X224148800Y-40226200D01*
X224148800Y-38773800D01*
X225101200Y-38773800D01*
X225101200Y-40226200D01*
G36*
X225101200Y-40226200D02*
G01*
X224148800Y-40226200D01*
X224148800Y-38773800D01*
X225101200Y-38773800D01*
X225101200Y-40226200D01*
G37*
X226351200Y-40226200D02*
X225398800Y-40226200D01*
X225398800Y-38773800D01*
X226351200Y-38773800D01*
X226351200Y-40226200D01*
G36*
X226351200Y-40226200D02*
G01*
X225398800Y-40226200D01*
X225398800Y-38773800D01*
X226351200Y-38773800D01*
X226351200Y-40226200D01*
G37*
X227601200Y-40226200D02*
X226648800Y-40226200D01*
X226648800Y-38773800D01*
X227601200Y-38773800D01*
X227601200Y-40226200D01*
G36*
X227601200Y-40226200D02*
G01*
X226648800Y-40226200D01*
X226648800Y-38773800D01*
X227601200Y-38773800D01*
X227601200Y-40226200D01*
G37*
X228851200Y-40226200D02*
X227898800Y-40226200D01*
X227898800Y-38773800D01*
X228851200Y-38773800D01*
X228851200Y-40226200D01*
G36*
X228851200Y-40226200D02*
G01*
X227898800Y-40226200D01*
X227898800Y-38773800D01*
X228851200Y-38773800D01*
X228851200Y-40226200D01*
G37*
X230101200Y-40226200D02*
X229148800Y-40226200D01*
X229148800Y-38773800D01*
X230101200Y-38773800D01*
X230101200Y-40226200D01*
G36*
X230101200Y-40226200D02*
G01*
X229148800Y-40226200D01*
X229148800Y-38773800D01*
X230101200Y-38773800D01*
X230101200Y-40226200D01*
G37*
X231351200Y-40226200D02*
X230398800Y-40226200D01*
X230398800Y-38773800D01*
X231351200Y-38773800D01*
X231351200Y-40226200D01*
G36*
X231351200Y-40226200D02*
G01*
X230398800Y-40226200D01*
X230398800Y-38773800D01*
X231351200Y-38773800D01*
X231351200Y-40226200D01*
G37*
X232601200Y-40226200D02*
X231648800Y-40226200D01*
X231648800Y-38773800D01*
X232601200Y-38773800D01*
X232601200Y-40226200D01*
G36*
X232601200Y-40226200D02*
G01*
X231648800Y-40226200D01*
X231648800Y-38773800D01*
X232601200Y-38773800D01*
X232601200Y-40226200D01*
G37*
X233851200Y-40226200D02*
X232898800Y-40226200D01*
X232898800Y-38773800D01*
X233851200Y-38773800D01*
X233851200Y-40226200D01*
G36*
X233851200Y-40226200D02*
G01*
X232898800Y-40226200D01*
X232898800Y-38773800D01*
X233851200Y-38773800D01*
X233851200Y-40226200D01*
G37*
X237051200Y-38326200D02*
X234798800Y-38326200D01*
X234798800Y-35173800D01*
X237051200Y-35173800D01*
X237051200Y-38326200D01*
G36*
X237051200Y-38326200D02*
G01*
X234798800Y-38326200D01*
X234798800Y-35173800D01*
X237051200Y-35173800D01*
X237051200Y-38326200D01*
G37*
%TD*%
D11*
%TO.C,Q8*%
X114690000Y-71285000D03*
D12*
X108255000Y-69000000D03*
D11*
X114690000Y-66715000D03*
%TD*%
D13*
%TO.C,J5*%
X99145000Y-41725000D03*
X97145000Y-41725000D03*
D14*
X94250000Y-35750000D03*
X102040000Y-35750000D03*
%TD*%
D15*
%TO.C,C10*%
X212401957Y-52516756D03*
X210501957Y-52516756D03*
%TD*%
D16*
%TO.C,R46*%
X175825000Y-86250000D03*
X174175000Y-86250000D03*
%TD*%
D17*
%TO.C,R49*%
X174998713Y-67198361D03*
X174998713Y-61273361D03*
%TD*%
D18*
%TO.C,TP11*%
X217600000Y-50800000D03*
%TD*%
D19*
%TO.C,C17*%
X84275000Y-55250000D03*
X86175000Y-55250000D03*
%TD*%
D20*
%TO.C,HS7*%
X164974614Y-69245822D03*
%TD*%
D15*
%TO.C,C14*%
X117700000Y-58500000D03*
X115800000Y-58500000D03*
%TD*%
D13*
%TO.C,J7*%
X88895000Y-41725000D03*
X86895000Y-41725000D03*
D14*
X84000000Y-35750000D03*
X91790000Y-35750000D03*
%TD*%
D21*
%TO.C,R39*%
X234001957Y-53091756D03*
X234001957Y-51441756D03*
%TD*%
D22*
%TO.C,Q3*%
X91397493Y-119424322D03*
D23*
X88857493Y-119424322D03*
X86317493Y-119424322D03*
%TD*%
D24*
%TO.C,R59*%
X77000000Y-71575000D03*
X77000000Y-77500000D03*
%TD*%
D16*
%TO.C,R31*%
X88325000Y-116500000D03*
X86675000Y-116500000D03*
%TD*%
D15*
%TO.C,C5*%
X155944731Y-108485041D03*
X154044731Y-108485041D03*
%TD*%
D16*
%TO.C,R34*%
X214076957Y-50766756D03*
X212426957Y-50766756D03*
%TD*%
D19*
%TO.C,C12*%
X156300000Y-58000000D03*
X158200000Y-58000000D03*
%TD*%
D22*
%TO.C,Q1*%
X221670624Y-119506009D03*
D23*
X219130624Y-119506009D03*
X216590624Y-119506009D03*
%TD*%
D16*
%TO.C,R52*%
X119150000Y-86250000D03*
X117500000Y-86250000D03*
%TD*%
D24*
%TO.C,R40*%
X190475110Y-71796301D03*
X190475110Y-77721301D03*
%TD*%
D16*
%TO.C,R20*%
X153575000Y-116500000D03*
X151925000Y-116500000D03*
%TD*%
D25*
%TO.C,U10*%
X175750000Y-78801700D03*
X174480000Y-78801700D03*
X173210000Y-78801700D03*
X171940000Y-78801700D03*
X171940000Y-84250000D03*
X173210000Y-84250000D03*
X174480000Y-84250000D03*
X175750000Y-84250000D03*
%TD*%
D26*
%TO.C,Q6*%
X137252759Y-67199105D03*
D27*
X143687759Y-69484105D03*
D26*
X137252759Y-71769105D03*
%TD*%
D28*
%TO.C,R25*%
X108750000Y-105925000D03*
X108750000Y-107575000D03*
%TD*%
D17*
%TO.C,R33*%
X84250000Y-114462500D03*
X84250000Y-108537500D03*
%TD*%
D25*
%TO.C,U11*%
X119155000Y-78775850D03*
X117885000Y-78775850D03*
X116615000Y-78775850D03*
X115345000Y-78775850D03*
X115345000Y-84224150D03*
X116615000Y-84224150D03*
X117885000Y-84224150D03*
X119155000Y-84224150D03*
%TD*%
D29*
%TO.C,U4*%
X166500000Y-100000000D03*
X166500000Y-101270000D03*
X166500000Y-102540000D03*
X166500000Y-103810000D03*
X171948300Y-103810000D03*
X171948300Y-102540000D03*
X171948300Y-101270000D03*
X171948300Y-100000000D03*
%TD*%
D30*
%TO.C,R19*%
X162350000Y-101750000D03*
X164000000Y-101750000D03*
%TD*%
D31*
%TO.C,J2*%
X75837500Y-103500000D03*
X75837500Y-105500000D03*
D32*
X69862500Y-108395000D03*
X69862500Y-100605000D03*
%TD*%
D28*
%TO.C,R24*%
X92500000Y-106925000D03*
X92500000Y-108575000D03*
%TD*%
D19*
%TO.C,C13*%
X151300000Y-58000000D03*
X153200000Y-58000000D03*
%TD*%
D33*
%TO.C,H4*%
X194208911Y-122719318D03*
%TD*%
%TO.C,H2*%
X191600000Y-37500000D03*
%TD*%
D21*
%TO.C,R3*%
X197511255Y-103715508D03*
X197511255Y-102065508D03*
%TD*%
D11*
%TO.C,Q5*%
X228250000Y-71750000D03*
D12*
X221815000Y-69465000D03*
D11*
X228250000Y-67180000D03*
%TD*%
D16*
%TO.C,R18*%
X162275000Y-100000000D03*
X160625000Y-100000000D03*
%TD*%
%TO.C,R43*%
X154750000Y-56000000D03*
X153100000Y-56000000D03*
%TD*%
D24*
%TO.C,R48*%
X133750000Y-71787500D03*
X133750000Y-77712500D03*
%TD*%
D18*
%TO.C,TP2*%
X229000000Y-108000000D03*
%TD*%
D19*
%TO.C,C2*%
X224600000Y-102425000D03*
X226500000Y-102425000D03*
%TD*%
D18*
%TO.C,TP8*%
X230800000Y-97800000D03*
%TD*%
D11*
%TO.C,Q7*%
X171440000Y-71751226D03*
D12*
X165005000Y-69466226D03*
D11*
X171440000Y-67181226D03*
%TD*%
D16*
%TO.C,R56*%
X86000000Y-53500000D03*
X84350000Y-53500000D03*
%TD*%
D18*
%TO.C,TP12*%
X166200000Y-55000000D03*
%TD*%
D17*
%TO.C,R41*%
X231746143Y-67445147D03*
X231746143Y-61520147D03*
%TD*%
D25*
%TO.C,U9*%
X133095000Y-63474150D03*
X134365000Y-63474150D03*
X135635000Y-63474150D03*
X136905000Y-63474150D03*
X136905000Y-58025850D03*
X135635000Y-58025850D03*
X134365000Y-58025850D03*
X133095000Y-58025850D03*
%TD*%
D18*
%TO.C,TP7*%
X76800000Y-48400000D03*
%TD*%
D15*
%TO.C,C4*%
X155944731Y-105735041D03*
X154044731Y-105735041D03*
%TD*%
D25*
%TO.C,U12*%
X76250000Y-63198300D03*
X77520000Y-63198300D03*
X78790000Y-63198300D03*
X80060000Y-63198300D03*
X80060000Y-57750000D03*
X78790000Y-57750000D03*
X77520000Y-57750000D03*
X76250000Y-57750000D03*
%TD*%
D18*
%TO.C,TP14*%
X94600000Y-53400000D03*
%TD*%
D28*
%TO.C,R12*%
X157494731Y-103910041D03*
X157494731Y-105560041D03*
%TD*%
D25*
%TO.C,U7*%
X189940000Y-59933725D03*
X191210000Y-59933725D03*
X192480000Y-59933725D03*
X193750000Y-59933725D03*
X193750000Y-54485425D03*
X192480000Y-54485425D03*
X191210000Y-54485425D03*
X189940000Y-54485425D03*
%TD*%
D18*
%TO.C,TP9*%
X157600000Y-98200000D03*
%TD*%
D33*
%TO.C,H1*%
X118100000Y-37500000D03*
%TD*%
D26*
%TO.C,Q4*%
X193937086Y-67166944D03*
D27*
X200372086Y-69451944D03*
D26*
X193937086Y-71736944D03*
%TD*%
D28*
%TO.C,R2*%
X223000000Y-100850000D03*
X223000000Y-102500000D03*
%TD*%
%TO.C,R13*%
X157494731Y-106910041D03*
X157494731Y-108560041D03*
%TD*%
D30*
%TO.C,R30*%
X97175000Y-101750000D03*
X98825000Y-101750000D03*
%TD*%
D18*
%TO.C,TP13*%
X116000000Y-54400000D03*
%TD*%
D26*
%TO.C,Q9*%
X80522500Y-66965000D03*
D27*
X86957500Y-69250000D03*
D26*
X80522500Y-71535000D03*
%TD*%
D18*
%TO.C,TP1*%
X80100000Y-105500000D03*
%TD*%
D15*
%TO.C,C8*%
X90950000Y-108500000D03*
X89050000Y-108500000D03*
%TD*%
D28*
%TO.C,R14*%
X174000000Y-105925000D03*
X174000000Y-107575000D03*
%TD*%
D20*
%TO.C,HS5*%
X221734437Y-69497279D03*
%TD*%
D29*
%TO.C,U6*%
X101301700Y-100000000D03*
X101301700Y-101270000D03*
X101301700Y-102540000D03*
X101301700Y-103810000D03*
X106750000Y-103810000D03*
X106750000Y-102540000D03*
X106750000Y-101270000D03*
X106750000Y-100000000D03*
%TD*%
D21*
%TO.C,R38*%
X234001957Y-56091756D03*
X234001957Y-54441756D03*
%TD*%
D34*
%TO.C,J10*%
X123100000Y-42907000D03*
D35*
X123100000Y-45447000D03*
X125640000Y-42907000D03*
X125640000Y-45447000D03*
X128180000Y-42907000D03*
X128180000Y-45447000D03*
X130720000Y-42907000D03*
X130720000Y-45447000D03*
X133260000Y-42907000D03*
X133260000Y-45447000D03*
X135800000Y-42907000D03*
X135800000Y-45447000D03*
X138340000Y-42907000D03*
X138340000Y-45447000D03*
X140880000Y-42907000D03*
X140880000Y-45447000D03*
X143420000Y-42907000D03*
X143420000Y-45447000D03*
X145960000Y-42907000D03*
X145960000Y-45447000D03*
X148500000Y-42907000D03*
X148500000Y-45447000D03*
X151040000Y-42907000D03*
X151040000Y-45447000D03*
X153580000Y-42907000D03*
X153580000Y-45447000D03*
X156120000Y-42907000D03*
X156120000Y-45447000D03*
X158660000Y-42907000D03*
X158660000Y-45447000D03*
X161200000Y-42907000D03*
X161200000Y-45447000D03*
X163740000Y-42907000D03*
X163740000Y-45447000D03*
X166280000Y-42907000D03*
X166280000Y-45447000D03*
X168820000Y-42907000D03*
X168820000Y-45447000D03*
X171360000Y-42907000D03*
X171360000Y-45447000D03*
X173900000Y-42907000D03*
X173900000Y-45447000D03*
X176440000Y-42907000D03*
X176440000Y-45447000D03*
X178980000Y-42907000D03*
X178980000Y-45447000D03*
X181520000Y-42907000D03*
X181520000Y-45447000D03*
X184060000Y-42907000D03*
X184060000Y-45447000D03*
X186600000Y-42907000D03*
X186600000Y-45447000D03*
%TD*%
D36*
%TO.C,HS1*%
X206690624Y-123506009D03*
X232090624Y-123506009D03*
%TD*%
D18*
%TO.C,TP5*%
X213700000Y-59500000D03*
%TD*%
D28*
%TO.C,R23*%
X92500000Y-103925000D03*
X92500000Y-105575000D03*
%TD*%
D13*
%TO.C,J8*%
X214500000Y-41725000D03*
X212500000Y-41725000D03*
D14*
X209605000Y-35750000D03*
X217395000Y-35750000D03*
%TD*%
D36*
%TO.C,HS3*%
X76491596Y-123403500D03*
X101891596Y-123403500D03*
%TD*%
D33*
%TO.C,H3*%
X114208911Y-122719318D03*
%TD*%
D16*
%TO.C,R47*%
X171825000Y-86250000D03*
X170175000Y-86250000D03*
%TD*%
D13*
%TO.C,J4*%
X125000000Y-118000000D03*
X127000000Y-118000000D03*
D14*
X129895000Y-123975000D03*
X122105000Y-123975000D03*
%TD*%
D28*
%TO.C,R42*%
X156250000Y-54425000D03*
X156250000Y-56075000D03*
%TD*%
%TO.C,R9*%
X213000000Y-112675000D03*
X213000000Y-114325000D03*
%TD*%
D19*
%TO.C,C16*%
X87725000Y-55250000D03*
X89625000Y-55250000D03*
%TD*%
D17*
%TO.C,R54*%
X118250000Y-66712500D03*
X118250000Y-60787500D03*
%TD*%
D18*
%TO.C,TP15*%
X219600000Y-42600000D03*
%TD*%
D37*
%TO.C,C11*%
X210601957Y-55891756D03*
X210601957Y-57791756D03*
%TD*%
D19*
%TO.C,C1*%
X224600000Y-99675000D03*
X226500000Y-99675000D03*
%TD*%
D28*
%TO.C,R16*%
X173925000Y-100025000D03*
X173925000Y-101675000D03*
%TD*%
%TO.C,R1*%
X223000000Y-97850000D03*
X223000000Y-99500000D03*
%TD*%
D15*
%TO.C,C7*%
X90950000Y-105750000D03*
X89050000Y-105750000D03*
%TD*%
D21*
%TO.C,R5*%
X197511255Y-109790508D03*
X197511255Y-108140508D03*
%TD*%
D34*
%TO.C,J11*%
X123100000Y-37807000D03*
D35*
X123100000Y-40347000D03*
X125640000Y-37807000D03*
X125640000Y-40347000D03*
X128180000Y-37807000D03*
X128180000Y-40347000D03*
X130720000Y-37807000D03*
X130720000Y-40347000D03*
X133260000Y-37807000D03*
X133260000Y-40347000D03*
X135800000Y-37807000D03*
X135800000Y-40347000D03*
X138340000Y-37807000D03*
X138340000Y-40347000D03*
X140880000Y-37807000D03*
X140880000Y-40347000D03*
X143420000Y-37807000D03*
X143420000Y-40347000D03*
X145960000Y-37807000D03*
X145960000Y-40347000D03*
X148500000Y-37807000D03*
X148500000Y-40347000D03*
X151040000Y-37807000D03*
X151040000Y-40347000D03*
X153580000Y-37807000D03*
X153580000Y-40347000D03*
X156120000Y-37807000D03*
X156120000Y-40347000D03*
X158660000Y-37807000D03*
X158660000Y-40347000D03*
X161200000Y-37807000D03*
X161200000Y-40347000D03*
X163740000Y-37807000D03*
X163740000Y-40347000D03*
X166280000Y-37807000D03*
X166280000Y-40347000D03*
X168820000Y-37807000D03*
X168820000Y-40347000D03*
X171360000Y-37807000D03*
X171360000Y-40347000D03*
X173900000Y-37807000D03*
X173900000Y-40347000D03*
X176440000Y-37807000D03*
X176440000Y-40347000D03*
X178980000Y-37807000D03*
X178980000Y-40347000D03*
X181520000Y-37807000D03*
X181520000Y-40347000D03*
X184060000Y-37807000D03*
X184060000Y-40347000D03*
X186600000Y-37807000D03*
X186600000Y-40347000D03*
%TD*%
D29*
%TO.C,U1*%
X204750000Y-103810000D03*
X204750000Y-102540000D03*
X204750000Y-101270000D03*
X204750000Y-100000000D03*
X199301700Y-100000000D03*
X199301700Y-101270000D03*
X199301700Y-102540000D03*
X199301700Y-103810000D03*
%TD*%
D30*
%TO.C,R51*%
X119425000Y-56750000D03*
X121075000Y-56750000D03*
%TD*%
D16*
%TO.C,R55*%
X89500000Y-53500000D03*
X87850000Y-53500000D03*
%TD*%
%TO.C,R8*%
X208411255Y-107965508D03*
X206761255Y-107965508D03*
%TD*%
D28*
%TO.C,R27*%
X108750000Y-100100000D03*
X108750000Y-101750000D03*
%TD*%
D16*
%TO.C,R32*%
X98825000Y-103250000D03*
X97175000Y-103250000D03*
%TD*%
D13*
%TO.C,J6*%
X202250000Y-41725000D03*
X200250000Y-41725000D03*
D14*
X197355000Y-35750000D03*
X205145000Y-35750000D03*
%TD*%
D15*
%TO.C,C9*%
X98950000Y-107000000D03*
X97050000Y-107000000D03*
%TD*%
D30*
%TO.C,R44*%
X133100000Y-56000000D03*
X134750000Y-56000000D03*
%TD*%
D18*
%TO.C,TP3*%
X127000000Y-115100000D03*
%TD*%
D30*
%TO.C,R15*%
X173925000Y-109500000D03*
X175575000Y-109500000D03*
%TD*%
D18*
%TO.C,TP4*%
X154800000Y-60000000D03*
%TD*%
D30*
%TO.C,R45*%
X136925000Y-56000000D03*
X138575000Y-56000000D03*
%TD*%
%TO.C,R36*%
X189865000Y-52485425D03*
X191515000Y-52485425D03*
%TD*%
D15*
%TO.C,C15*%
X121200000Y-58500000D03*
X119300000Y-58500000D03*
%TD*%
D36*
%TO.C,HS2*%
X141510913Y-123485075D03*
X166910913Y-123485075D03*
%TD*%
D30*
%TO.C,R50*%
X115925000Y-56750000D03*
X117575000Y-56750000D03*
%TD*%
D20*
%TO.C,HS9*%
X87000000Y-69000000D03*
%TD*%
D30*
%TO.C,R17*%
X173925000Y-103750000D03*
X175575000Y-103750000D03*
%TD*%
%TO.C,R57*%
X76175000Y-55750000D03*
X77825000Y-55750000D03*
%TD*%
%TO.C,R28*%
X108675000Y-103750000D03*
X110325000Y-103750000D03*
%TD*%
D29*
%TO.C,U3*%
X166500000Y-105845000D03*
X166500000Y-107115000D03*
X166500000Y-108385000D03*
X166500000Y-109655000D03*
X171948300Y-109655000D03*
X171948300Y-108385000D03*
X171948300Y-107115000D03*
X171948300Y-105845000D03*
%TD*%
D18*
%TO.C,TP10*%
X92400000Y-98600000D03*
%TD*%
D16*
%TO.C,R21*%
X164000000Y-103250000D03*
X162350000Y-103250000D03*
%TD*%
D31*
%TO.C,J3*%
X232750000Y-105500000D03*
X232750000Y-103500000D03*
D32*
X238725000Y-100605000D03*
X238725000Y-108395000D03*
%TD*%
D28*
%TO.C,R35*%
X212501957Y-54191756D03*
X212501957Y-55841756D03*
%TD*%
D20*
%TO.C,HS8*%
X108248714Y-68982005D03*
%TD*%
D19*
%TO.C,C3*%
X207811255Y-102465508D03*
X209711255Y-102465508D03*
%TD*%
D30*
%TO.C,R26*%
X108675000Y-109500000D03*
X110325000Y-109500000D03*
%TD*%
D17*
%TO.C,R22*%
X149200063Y-114443201D03*
X149200063Y-108518201D03*
%TD*%
D20*
%TO.C,HS4*%
X200480110Y-69508801D03*
%TD*%
D30*
%TO.C,R10*%
X206761255Y-106215508D03*
X208411255Y-106215508D03*
%TD*%
D16*
%TO.C,R4*%
X197517156Y-99945034D03*
X195867156Y-99945034D03*
%TD*%
D18*
%TO.C,TP6*%
X95400000Y-48800000D03*
%TD*%
D29*
%TO.C,U5*%
X101301700Y-105810000D03*
X101301700Y-107080000D03*
X101301700Y-108350000D03*
X101301700Y-109620000D03*
X106750000Y-109620000D03*
X106750000Y-108350000D03*
X106750000Y-107080000D03*
X106750000Y-105810000D03*
%TD*%
D16*
%TO.C,R6*%
X197517156Y-105945034D03*
X195867156Y-105945034D03*
%TD*%
D20*
%TO.C,HS6*%
X143750000Y-69250000D03*
%TD*%
D30*
%TO.C,R58*%
X80100000Y-55750000D03*
X81750000Y-55750000D03*
%TD*%
D29*
%TO.C,U2*%
X204750000Y-109810000D03*
X204750000Y-108540000D03*
X204750000Y-107270000D03*
X204750000Y-106000000D03*
X199301700Y-106000000D03*
X199301700Y-107270000D03*
X199301700Y-108540000D03*
X199301700Y-109810000D03*
%TD*%
D25*
%TO.C,U8*%
X228326191Y-57228446D03*
X229596191Y-57228446D03*
X230866191Y-57228446D03*
X232136191Y-57228446D03*
X232136191Y-51780146D03*
X230866191Y-51780146D03*
X229596191Y-51780146D03*
X228326191Y-51780146D03*
%TD*%
D15*
%TO.C,C6*%
X164250000Y-107000000D03*
X162350000Y-107000000D03*
%TD*%
D30*
%TO.C,R7*%
X208436255Y-109715508D03*
X210086255Y-109715508D03*
%TD*%
D17*
%TO.C,R11*%
X217250000Y-114712500D03*
X217250000Y-108787500D03*
%TD*%
D16*
%TO.C,R53*%
X115325000Y-86250000D03*
X113675000Y-86250000D03*
%TD*%
D22*
%TO.C,Q2*%
X156750913Y-119500000D03*
D23*
X154210913Y-119500000D03*
X151670913Y-119500000D03*
%TD*%
D30*
%TO.C,R37*%
X193695000Y-52459575D03*
X195345000Y-52459575D03*
%TD*%
D13*
%TO.C,J1*%
X78645000Y-41725000D03*
X76645000Y-41725000D03*
D14*
X73750000Y-35750000D03*
X81540000Y-35750000D03*
%TD*%
D16*
%TO.C,R29*%
X97075000Y-100000000D03*
X95425000Y-100000000D03*
%TD*%
G36*
X103163039Y-61778835D02*
G01*
X103208794Y-61831639D01*
X103220000Y-61883150D01*
X103220000Y-75885150D01*
X103200315Y-75952189D01*
X103147511Y-75997944D01*
X103096000Y-76009150D01*
X92094000Y-76009150D01*
X92026961Y-75989465D01*
X91981206Y-75936661D01*
X91970000Y-75885150D01*
X91970000Y-61883150D01*
X91989685Y-61816111D01*
X92042489Y-61770356D01*
X92094000Y-61759150D01*
X103096000Y-61759150D01*
X103163039Y-61778835D01*
G37*
G36*
X216693039Y-62339685D02*
G01*
X216738794Y-62392489D01*
X216750000Y-62444000D01*
X216750000Y-76446000D01*
X216730315Y-76513039D01*
X216677511Y-76558794D01*
X216626000Y-76570000D01*
X205624000Y-76570000D01*
X205556961Y-76550315D01*
X205511206Y-76497511D01*
X205500000Y-76446000D01*
X205500000Y-62444000D01*
X205519685Y-62376961D01*
X205572489Y-62331206D01*
X205624000Y-62320000D01*
X216626000Y-62320000D01*
X216693039Y-62339685D01*
G37*
G36*
X159958005Y-62174383D02*
G01*
X160003760Y-62227187D01*
X160014966Y-62278698D01*
X160014966Y-76280698D01*
X159995281Y-76347737D01*
X159942477Y-76393492D01*
X159890966Y-76404698D01*
X148888966Y-76404698D01*
X148821927Y-76385013D01*
X148776172Y-76332209D01*
X148764966Y-76280698D01*
X148764966Y-62278698D01*
X148784651Y-62211659D01*
X148837455Y-62165904D01*
X148888966Y-62154698D01*
X159890966Y-62154698D01*
X159958005Y-62174383D01*
G37*
M02*
